<svg width="426" height="366" viewBox="0 0 426 366" fill="none" xmlns="http://www.w3.org/2000/svg">
<path d="M412.685 358.677C409.713 361.651 405.169 363.05 399.052 363.05C393.022 363.05 388.478 361.563 385.419 358.502C382.448 355.44 380.875 351.067 380.875 345.294C380.875 342.145 381.312 339.346 382.273 336.897C383.234 334.448 384.633 332.523 386.555 331.124C388.478 329.724 390.75 329.024 393.459 329.024V334.797C390.925 334.797 389.002 335.76 387.691 337.596C386.381 339.521 385.681 341.97 385.681 345.119C385.681 349.142 386.73 352.204 388.827 354.128C390.925 356.14 394.246 357.102 398.79 357.102H399.314C403.858 357.102 407.179 356.14 409.277 354.216C411.374 352.291 412.335 349.405 412.335 345.556C412.335 341.97 411.549 339.258 409.976 337.422C408.403 335.585 406.131 334.622 403.072 334.622H402.722V346.518H397.916V329.024H416.442V333.223L412.597 333.66C415.569 336.459 417.054 340.483 417.054 345.731C417.142 351.417 415.656 355.703 412.685 358.677Z" fill="white"/>
<path d="M389.702 322.114V317.828L393.809 317.303V316.954C390.663 315.729 389.09 313.63 389.09 310.743C389.09 309.781 389.265 308.994 389.527 308.207H394.508V310.131C394.508 312.143 395.12 313.717 396.256 314.942C397.392 316.166 399.227 316.691 401.586 316.691H416.617V321.939H389.702V322.114Z" fill="white"/>
<path d="M413.733 302.608C411.461 304.708 407.878 305.757 403.072 305.757C398.265 305.757 394.77 304.708 392.41 302.608C390.138 300.509 389.002 297.273 389.002 292.987C389.002 289.051 390.051 286.164 392.235 284.152C394.333 282.228 397.741 281.266 402.373 281.266H404.382V300.422C407.266 300.247 409.451 299.634 410.762 298.497C412.073 297.36 412.859 295.523 412.859 292.987C412.859 291.062 412.422 289.488 411.461 288.263C410.5 287.039 409.102 286.514 407.179 286.514V281.353C410.412 281.353 412.859 282.403 414.52 284.59C416.18 286.776 417.054 289.575 417.054 293.074C417.141 297.273 416.005 300.422 413.733 302.608ZM400.45 286.689C395.644 286.689 393.284 288.788 393.284 292.899C393.284 295.261 393.896 296.923 395.032 298.147C396.168 299.285 398.003 299.984 400.45 300.247V286.689Z" fill="white"/>
<path d="M389.702 275.755V271.469L393.285 270.945V270.595C391.886 269.632 390.925 268.583 390.138 267.183C389.352 265.784 389.09 264.297 389.09 262.635C389.09 259.136 390.488 256.862 393.285 255.637V255.287C391.974 254.325 390.925 253.188 390.226 251.789C389.527 250.389 389.09 248.815 389.09 247.065C389.09 244.529 389.789 242.604 391.1 241.117C392.411 239.718 394.595 238.931 397.654 238.931H416.617V244.179H398.615C396.78 244.179 395.469 244.616 394.683 245.403C393.896 246.191 393.547 247.328 393.547 248.727C393.547 250.389 394.246 251.789 395.557 252.926C396.867 254.063 398.615 254.588 400.8 254.588H416.617V259.836H398.615C396.78 259.836 395.469 260.186 394.683 260.973C393.896 261.76 393.547 262.81 393.547 264.297C393.547 265.959 394.246 267.358 395.557 268.583C396.867 269.72 398.615 270.332 400.8 270.332H416.617V275.58H389.702V275.755Z" fill="white"/>
<path d="M413.733 230.971C411.461 232.983 407.878 233.945 403.072 233.945C398.265 233.945 394.77 232.983 392.41 230.971C390.138 228.959 389.002 225.898 389.002 221.787C389.002 218.113 389.876 215.401 391.711 213.565C393.459 211.728 396.168 210.853 399.663 210.853V216.189C397.479 216.189 395.906 216.626 394.857 217.501C393.808 218.375 393.284 219.862 393.284 221.874C393.284 224.236 394.071 225.898 395.556 226.947C397.042 227.997 399.576 228.522 402.897 228.522H403.246C406.567 228.522 409.014 227.997 410.5 226.947C411.985 225.898 412.772 224.148 412.772 221.787C412.772 219.775 412.248 218.288 411.199 217.326C410.15 216.364 408.577 215.926 406.48 215.926V210.853C409.713 210.853 412.248 211.815 414.17 213.652C416.093 215.489 417.054 218.2 417.054 221.874C417.141 225.898 416.005 229.047 413.733 230.971Z" fill="white"/>
<path d="M425.356 206.829H421.86V204.555C421.86 201.494 420.113 199.394 416.53 198.345L389.701 208.754V203.243L402.897 198.257C404.645 197.558 407.266 196.683 410.937 195.633V195.371C407.529 194.409 404.82 193.622 402.897 193.009L389.701 188.811V183.562L415.219 192.484C418.627 193.709 421.249 195.108 423.084 196.595C424.919 198.17 425.88 200.269 425.88 202.893C425.88 204.555 425.706 205.867 425.356 206.829Z" fill="white"/>
<path d="M219.554 365.324L295.146 289.663V362.7H356.93V184.175H178.568V245.928H251.538L175.859 321.677L219.554 365.324Z" fill="#F44336"/>
<path d="M183.462 0.48877C82.1777 0.48877 0.119141 82.6226 0.119141 184C0.119141 275.843 67.5837 351.941 155.585 365.412V291.062C108.045 278.729 72.9144 235.432 72.9144 184C72.9144 123.034 122.464 73.4383 183.375 73.4383C206.096 73.4383 227.157 80.3484 244.722 92.1568L303.098 45.0982C271.026 17.2829 229.167 0.48877 183.462 0.48877Z" fill="#F44336"/>
</svg>
